<svg xmlns="http://www.w3.org/2000/svg" xmlns:xlink="http://www.w3.org/1999/xlink" version="1.1" width="60" height="60" viewBox="0 0 60 60" xml:space="preserve">
<desc>Created with Fabric.js 3.5.0</desc>
<defs>
</defs>
<rect x="0" y="0" width="100%" height="100%" fill="rgba(255,255,255,0)"/>
<g transform="matrix(0.1513 0 0 0.1682 30.0061 29.9944)" id="50336">
<path style="stroke: none; stroke-width: 1; stroke-dasharray: none; stroke-linecap: butt; stroke-dashoffset: 0; stroke-linejoin: miter; stroke-miterlimit: 4; is-custom-font: none; font-file-url: none; fill: rgb(255,255,255); fill-rule: nonzero; opacity: 1;" vector-effect="non-scaling-stroke" transform=" translate(-256, -256)" d="M 340.8 83 C 307 83 276 98.8 256 124.8 c -20 -26 -51 -41.8 -84.8 -41.8 C 112.1 83 64 131.3 64 190.7 c 0 27.9 10.6 54.4 29.9 74.6 L 245.1 418 l 10.9 11 l 10.9 -11 l 148.3 -149.8 c 21 -20.3 32.8 -47.9 32.8 -77.5 C 448 131.3 399.9 83 340.8 83 L 340.8 83 z" stroke-linecap="round"/>
</g>
</svg>