<svg xmlns="http://www.w3.org/2000/svg" xmlns:xlink="http://www.w3.org/1999/xlink" version="1.1" width="20" height="20" viewBox="0 0 20 20" xml:space="preserve">
<desc>Created with Fabric.js 3.5.0</desc>
<defs>
</defs>
<rect x="0" y="0" width="100%" height="100%" fill="rgba(255,255,255,0)"/>
<g transform="matrix(1.168 0 0 1.2419 9.9998 9.9998)" id="416649">
<path style="stroke: none; stroke-width: 1; stroke-dasharray: none; stroke-linecap: butt; stroke-dashoffset: 0; stroke-linejoin: miter; stroke-miterlimit: 4; is-custom-font: none; font-file-url: none; fill: rgb(255,255,255); fill-rule: nonzero; opacity: 1;" vector-effect="non-scaling-stroke" transform=" translate(-7.9999, -7.5)" d="m 8 2.748 l -0.717 -0.737 C 5.6 0.281 2.514 0.878 1.4 3.053 c -0.523 1.023 -0.641 2.5 0.314 4.385 c 0.92 1.815 2.834 3.989 6.286 6.357 c 3.452 -2.368 5.365 -4.542 6.286 -6.357 c 0.955 -1.886 0.838 -3.362 0.314 -4.385 C 13.486 0.878 10.4 0.28 8.717 2.01 L 8 2.748 z M 8 15 C -7.333 4.868 3.279 -3.04 7.824 1.143 c 0.06 0.055 0.119 0.112 0.176 0.171 a 3.12 3.12 0 0 1 0.176 -0.17 C 12.72 -3.042 23.333 4.867 8 15 z" stroke-linecap="round"/>
</g>
</svg>