<svg xmlns="http://www.w3.org/2000/svg" xmlns:xlink="http://www.w3.org/1999/xlink" version="1.1" width="20" height="20" viewBox="0 0 20 20" xml:space="preserve">
<desc>Created with Fabric.js 3.5.0</desc>
<defs>
</defs>
<rect x="0" y="0" width="100%" height="100%" fill="rgba(255,255,255,0)"/>
<g transform="matrix(-0.0555 0 0 0.0679 9.996 10.0038)" id="291791">
<path style="stroke: none; stroke-width: 0; stroke-dasharray: none; stroke-linecap: butt; stroke-dashoffset: 0; stroke-linejoin: miter; stroke-miterlimit: 4; is-custom-font: none; font-file-url: none; fill: rgb(255,255,255); fill-rule: nonzero; opacity: 1;" vector-effect="non-scaling-stroke" transform=" translate(-256, -256)" d="M 322.7 128.4 L 423 233.4 c 6 5.8 9 13.7 9 22.4 c 0 8.7 -3 16.5 -9 22.4 L 322.7 383.6 c -11.9 12.5 -31.3 12.5 -43.2 0 c -11.9 -12.5 -11.9 -32.7 0 -45.2 l 48.2 -50.4 h -217 C 93.7 288 80 273.7 80 256 c 0 -17.7 13.7 -32 30.6 -32 h 217 l -48.2 -50.4 c -11.9 -12.5 -11.9 -32.7 0 -45.2 C 291.4 115.9 310.7 115.9 322.7 128.4 z" stroke-linecap="round"/>
</g>
</svg>