<svg xmlns="http://www.w3.org/2000/svg" xmlns:xlink="http://www.w3.org/1999/xlink" version="1.1" width="15" height="15" viewBox="0 0 15 15" xml:space="preserve">
<desc>Created with Fabric.js 3.5.0</desc>
<defs>
</defs>
<rect x="0" y="0" width="100%" height="100%" fill="rgba(255,255,255,0)"/>
<g transform="matrix(0.6221 0 0 0.8591 7.4998 7.5003)" id="205380">
<path style="stroke: none; stroke-width: 1; stroke-dasharray: none; stroke-linecap: butt; stroke-dashoffset: 0; stroke-linejoin: miter; stroke-miterlimit: 4; is-custom-font: none; font-file-url: none; fill: rgb(255,255,255); fill-rule: evenodd; opacity: 1;" vector-effect="non-scaling-stroke" transform=" translate(-767.0302, -563)" d="M 767 563.979053 L 767 571 L 759.125 566.2 L 757.041667 566.2 C 756 566.2 756 565.133333 756 565.133333 L 756 560.866667 C 756 560.866667 756 559.8 757.041667 559.8 L 759.125 559.8 L 759.850243 559.357947 L 767 563.979053 L 767 563.979053 Z M 767 560.406982 L 767 555 L 762.694578 557.624257 L 767 560.406982 L 767 560.406982 Z M 776.407665 566.487443 C 776.791323 565.396835 777 564.223791 777 563.002007 C 777 559.942759 775.691674 557.189086 773.604021 555.269989 L 772.838796 555.925896 C 774.779165 557.665257 776 560.191061 776 563.002007 C 776 564.022717 775.839026 565.005829 775.541079 565.927342 L 776.407665 566.487443 L 776.407665 566.487443 Z M 775.00889 569.155443 C 774.545107 569.79564 774.010844 570.381441 773.417486 570.90146 L 772.615994 570.271717 C 773.196789 569.782589 773.718144 569.225133 774.167671 568.611738 L 775.00889 569.155443 L 775.00889 569.155443 Z M 773.885657 564.857393 C 773.96084 564.416836 774 563.963995 774 563.502007 C 774 561.043605 772.891101 558.844199 771.146204 557.37669 L 770.375249 558.037508 C 771.975416 559.320368 773 561.291536 773 563.502007 C 773 563.757715 772.986289 564.010221 772.959562 564.258829 L 773.885657 564.857393 L 773.885657 564.857393 Z M 772.795819 567.725067 C 772.420874 568.327158 771.968142 568.875786 771.451677 569.356896 L 770.654446 568.730501 C 771.159078 568.280953 771.598204 567.759446 771.955718 567.182085 L 772.795819 567.725067 L 772.795819 567.725067 Z M 770.972509 562.974536 C 770.815643 561.478385 769.998963 560.178682 768.818718 559.371677 L 768.818718 559.371677 L 768.0252 560.051836 C 768.842774 560.532777 769.474341 561.296026 769.785928 562.207613 L 770.972509 562.974536 L 770.972509 562.974536 Z M 770.275335 566.096002 C 769.953336 566.625575 769.535714 567.090587 769.04644 567.467067 L 768.228376 566.824303 C 768.71821 566.495105 769.131248 566.060443 769.434962 565.552843 L 770.275335 566.096002 L 770.275335 566.096002 Z M 757.961914 556.801514 L 777.514404 569.675781 L 778.060341 568.837955 L 758.507851 555.963687 L 757.961914 556.801514 Z" stroke-linecap="round"/>
</g>
</svg>