<svg xmlns="http://www.w3.org/2000/svg" xmlns:xlink="http://www.w3.org/1999/xlink" version="1.1" width="15" height="15" viewBox="0 0 15 15" xml:space="preserve">
<desc>Created with Fabric.js 3.5.0</desc>
<defs>
</defs>
<rect x="0" y="0" width="100%" height="100%" fill="rgba(255,255,255,0)"/>
<g transform="matrix(0.6591 0 0 0.8672 7.4999 7.4997)" id="591738">
<path style="stroke: none; stroke-width: 1; stroke-dasharray: none; stroke-linecap: butt; stroke-dashoffset: 0; stroke-linejoin: miter; stroke-miterlimit: 4; is-custom-font: none; font-file-url: none; fill: rgb(255,255,255); fill-rule: evenodd; opacity: 1;" vector-effect="non-scaling-stroke" transform=" translate(-694.5, -563)" d="M 687.125 559.8 L 685.041667 559.8 C 684 559.8 684 560.866667 684 560.866667 L 684 565.133333 C 684 565.133333 684 566.2 685.041667 566.2 L 687.125 566.2 L 695 571 L 695 555 L 687.125 559.8 Z M 701.604021 555.269989 C 703.691674 557.189086 705 559.942759 705 563.002007 C 705 566.151387 703.613446 568.976921 701.417486 570.90146 L 700.615994 570.271717 C 702.685249 568.529054 704 565.919069 704 563.002007 C 704 560.191061 702.779165 557.665257 700.838796 555.925896 L 701.604021 555.269989 Z M 699.146204 557.37669 C 700.891101 558.844199 702 561.043605 702 563.502007 C 702 565.813711 701.019495 567.896405 699.451677 569.356896 L 698.654446 568.730501 C 700.09362 567.448425 701 565.581064 701 563.502007 C 701 561.291536 699.975416 559.320368 698.375249 558.037508 L 699.146204 557.37669 Z M 696.818718 559.371677 C 698.135703 560.27218 699 561.78616 699 563.502007 C 699 565.116879 698.234435 566.552944 697.04644 567.467067 L 696.228376 566.824303 C 697.29691 566.106184 698 564.886203 698 563.502007 C 698 562.031868 697.206892 560.74697 696.0252 560.051836 L 696.818718 559.371677 L 696.818718 559.371677 Z" stroke-linecap="round"/>
</g>
</svg>