<svg xmlns="http://www.w3.org/2000/svg" xmlns:xlink="http://www.w3.org/1999/xlink" version="1.1" width="60" height="60" viewBox="0 0 60 60" xml:space="preserve">
<desc>Created with Fabric.js 3.5.0</desc>
<defs>
</defs>
<rect x="0" y="0" width="100%" height="100%" fill="rgba(255,255,255,0)"/>
<g transform="matrix(0.1952 0 0 0.1952 29.9974 29.9974)" id="580251">
<path style="stroke: none; stroke-width: 1; stroke-dasharray: none; stroke-linecap: butt; stroke-dashoffset: 0; stroke-linejoin: miter; stroke-miterlimit: 4; is-custom-font: none; font-file-url: none; fill: rgb(255,255,255); fill-rule: nonzero; opacity: 1;" vector-effect="non-scaling-stroke" transform=" translate(-150.0015, -150.0015)" d="M 150 0 C 67.159 0 0.001 67.159 0.001 150 c 0 82.838 67.157 150.003 149.997 150.003 S 300.002 232.838 300.002 150 C 300.002 67.159 232.839 0 150 0 z M 189.226 218.202 c -2.736 2.734 -6.321 4.101 -9.902 4.101 c -3.582 0 -7.169 -1.367 -9.902 -4.103 l -56.295 -56.292 c -0.838 -0.537 -1.639 -1.154 -2.368 -1.886 c -2.796 -2.799 -4.145 -6.479 -4.077 -10.144 c -0.065 -3.667 1.281 -7.35 4.077 -10.146 c 0.734 -0.731 1.53 -1.349 2.368 -1.886 l 56.043 -56.043 c 5.47 -5.465 14.34 -5.467 19.808 0.003 c 5.47 5.467 5.47 14.335 0 19.808 l -48.265 48.265 l 48.514 48.516 C 194.695 203.864 194.695 212.732 189.226 218.202 z" stroke-linecap="round"/>
</g>
</svg>